<svg id="Layer_1" data-name="Layer 1" xmlns="http://www.w3.org/2000/svg" viewBox="0 0 841.89 595.28"><defs><style>.cls-1{fill:#02405a;}.cls-2{fill:#475c81;}.cls-3{fill:#254567;}.cls-4{fill:#f2bf84;}.cls-5{fill:#056974;}.cls-6{fill:#a0d1e8;}.cls-7{fill:#c7e6f9;}.cls-8{fill:#51aed6;}.cls-9{fill:#005f89;}.cls-10{fill:#d2c4e1;}.cls-11{fill:#f2d98d;}.cls-12{fill:#efd7e8;}.cls-13{fill:#058d8d;}.cls-14{fill:#9872b2;}</style></defs><title>EGABI_logoArtboard 1</title><polygon class="cls-1" points="143.92 291.23 209.98 234.25 56 195.29 143.92 291.23"/><polygon class="cls-2" points="243.98 204.69 207.82 367.39 143.73 290.86 243.98 204.69"/><polygon class="cls-3" points="244.09 204.84 361.77 402.41 207.81 367.39 244.09 204.84"/><polygon class="cls-4" points="207.77 367.35 361.76 402.4 286.87 464.3 207.77 367.35"/><polygon class="cls-1" points="361.76 402.41 586.67 265.96 585.44 404.78 361.76 402.41"/><polygon class="cls-5" points="438.93 480.28 585.44 404.74 438.27 403.27 438.93 480.28"/><polygon class="cls-6" points="325.8 155.38 473.27 66.26 277.65 62.8 325.8 155.38"/><polygon class="cls-7" points="277.62 62.8 244.07 204.88 325.8 155.38 277.62 62.8"/><polygon class="cls-8" points="244.09 204.84 473.27 66.25 361.76 402.4 244.09 204.84"/><polyline class="cls-9" points="473.27 66.26 586.71 266.06 361.74 402.45"/><polygon class="cls-10" points="473.27 66.25 590.21 179.87 550.72 202.95 473.27 66.25"/><polygon class="cls-11" points="207.81 367.37 185.5 381.62 143.79 291.04 207.81 367.37"/><polygon class="cls-12" points="550.72 203.13 590.21 179.87 586.68 266.11 550.72 203.13"/><polygon class="cls-13" points="585.44 404.74 618 266.21 586.68 266.15 585.44 404.74"/><polygon class="cls-14" points="586.68 266.15 618 266.19 590.22 179.81 586.68 266.15"/></svg>